<svg width="32" height="32" viewBox="0 0 32 32" fill="none" xmlns="http://www.w3.org/2000/svg">
<path d="M16 2.9989C13.6756 2.99869 11.3937 3.62167 9.39193 4.80296C7.39013 5.98425 5.74166 7.68064 4.6182 9.71546C3.49474 11.7503 2.93738 14.0491 3.00418 16.3725C3.07098 18.6959 3.75949 20.9589 4.998 22.9258C6.23651 24.8927 7.97973 26.4916 10.0461 27.5559C12.1125 28.6203 14.4264 29.1111 16.7469 28.9774C19.0674 28.8436 21.3096 28.0901 23.24 26.7954C25.1704 25.5007 26.7184 23.7121 27.7227 21.616C27.0117 21.8794 26.2582 22.0092 25.5 21.9989C23.2141 21.9989 21.9345 20.9983 21.2636 20.1588C21.1073 19.9628 20.9661 19.7551 20.8413 19.5376C20.1265 20.517 19.1317 21.2568 17.9881 21.6596C16.8444 22.0625 15.6056 22.1094 14.4348 21.7943C13.264 21.4792 12.216 20.8168 11.4291 19.8943C10.6422 18.9719 10.1531 17.8327 10.0264 16.6268C9.89972 15.421 10.1413 14.205 10.7193 13.1392C11.2973 12.0733 12.1846 11.2075 13.2643 10.6559C14.3441 10.1043 15.5656 9.89266 16.768 10.049C17.9704 10.2053 19.0972 10.7222 20 11.5315V10.9989C20 10.7337 20.1054 10.4793 20.2929 10.2918C20.4804 10.1043 20.7348 9.9989 21 9.9989C21.2652 9.9989 21.5196 10.1043 21.7071 10.2918C21.8947 10.4793 22 10.7337 22 10.9989V15.9989C22 17.8237 22.6072 19.9989 25.5 19.9989C28.2932 19.9989 28.9553 17.971 28.9976 16.1886C28.9985 16.1254 29 16.0623 29 15.9989C28.9961 12.5523 27.6252 9.24795 25.1881 6.81082C22.751 4.37369 19.4466 3.0028 16 2.9989Z" fill="black"/>
<path d="M16 19.9989C18.2091 19.9989 20 18.208 20 15.9989C20 13.7898 18.2091 11.9989 16 11.9989C13.7909 11.9989 12 13.7898 12 15.9989C12 18.208 13.7909 19.9989 16 19.9989Z" fill="black"/>
</svg>
