<svg width="32" height="32" viewBox="0 0 32 32" fill="none" xmlns="http://www.w3.org/2000/svg">
<path d="M16.0004 20.9994C18.7618 20.9994 21.0004 18.7608 21.0004 15.9994C21.0004 13.238 18.7618 10.9994 16.0004 10.9994C13.2389 10.9994 11.0004 13.238 11.0004 15.9994C11.0004 18.7608 13.2389 20.9994 16.0004 20.9994Z" stroke="black" stroke-width="2" stroke-linecap="round" stroke-linejoin="round"/>
<path d="M22.6356 25.9997C20.4078 27.4782 17.75 28.1704 15.0839 27.9665C12.4179 27.7625 9.89636 26.6741 7.91937 24.8738C5.94238 23.0736 4.62319 20.6647 4.17113 18.0294C3.71907 15.3941 4.16003 12.6833 5.42404 10.3271C6.68805 7.97092 8.70271 6.10434 11.1484 5.02353C13.594 3.94273 16.3305 3.7096 18.9237 4.36115C21.517 5.01269 23.8183 6.51159 25.4627 8.62C27.107 10.7284 28.0002 13.3256 28.0004 15.9994C28.0004 18.7608 27.0004 20.9994 24.5004 20.9994C22.0004 20.9994 21.0004 18.7608 21.0004 15.9994V10.9994" stroke="black" stroke-width="2" stroke-linecap="round" stroke-linejoin="round"/>
</svg>
